<svg width="24" height="24" viewBox="0 0 24 24" fill="none" xmlns="http://www.w3.org/2000/svg">
	<path
		d="M11.9999 21.9999C10.634 21.9999 9.34637 21.7385 8.13723 21.2156C6.93461 20.6928 5.87253 19.9704 4.95096 19.049C4.0294 18.1274 3.30719 17.0652 2.78431 15.8627C2.26143 14.6536 2 13.3659 2 12C2 10.6339 2.26143 9.34964 2.78431 8.14703C3.30719 6.93789 4.02613 5.87253 4.94116 4.95097C5.86273 4.0294 6.92807 3.30719 8.13723 2.78431C9.34637 2.26144 10.634 2 11.9999 2C13.3659 2 14.6503 2.26144 15.8528 2.78431C17.0621 3.30719 18.1273 4.0294 19.0489 4.95097C19.9705 5.87253 20.6927 6.93789 21.2156 8.14703C21.7384 9.34964 22 10.6339 22 12C22 13.3659 21.7384 14.6536 21.2156 15.8627C20.6927 17.0652 19.9705 18.1274 19.0489 19.049C18.1273 19.9704 17.0621 20.6928 15.8528 21.2156C14.6503 21.7385 13.3659 21.9999 11.9999 21.9999ZM11.9999 20.3332C13.1568 20.3332 14.2386 20.1175 15.245 19.6862C16.2581 19.2548 17.1438 18.6601 17.9018 17.9019C18.6666 17.1371 19.2614 16.2516 19.6862 15.245C20.1176 14.2385 20.3332 13.1567 20.3332 12C20.3332 10.8431 20.1176 9.76137 19.6862 8.75487C19.2547 7.74834 18.6568 6.86272 17.8921 6.09802C17.1338 5.33333 16.2515 4.73856 15.245 4.31372C14.2386 3.88234 13.1568 3.66666 11.9999 3.66666V20.3332Z"
		fill="var(--color-text-secondary)"
	/>
</svg>
